<?xml version="1.0" encoding="UTF-8"?>
<svg id="Layer_2" xmlns="http://www.w3.org/2000/svg" viewBox="0 0 349.33 45.18">
  <defs>
    <style>
      .cls-1 {
        fill: #0c5290;
      }
    </style>
  </defs>
  <g id="_레이어_1" data-name="레이어_1">
    <g>
      <polygon class="cls-1" points="0 1.71 8.56 1.71 9.58 29.09 22.93 1.71 31.83 1.71 34.57 29.09 47.24 2.05 56.48 2.05 35.26 44.84 27.38 44.84 25.33 14.03 10.61 44.5 2.74 44.5 0 1.71"/>
      <g>
        <path class="cls-1" d="M63.81,29.13c-.41-.64-.91-1.08-1.52-1.32-.61-.24-1.25-.36-1.94-.36-.62,0-1.25.16-1.89.48-.64.32-1.16.77-1.57,1.36-.34.51-.62,1.12-.83,1.86-.21.73-.32,1.58-.32,2.55s.1,1.78.3,2.5c.2.72.51,1.39.91,2.01.36.55.84.98,1.43,1.31.59.33,1.24.49,1.97.49s1.4-.18,2.03-.54c.63-.36,1.12-.78,1.46-1.26.36-.51.65-1.14.87-1.93.21-.78.32-1.64.32-2.58s-.12-1.84-.35-2.63c-.24-.79-.52-1.44-.87-1.94Z"/>
        <path class="cls-1" d="M135.42,12.7c.15-.25.27-.59.35-1.01.08-.42.13-.93.13-1.52s-.05-1.1-.14-1.53c-.09-.43-.22-.77-.37-1.02-.22-.36-.5-.6-.85-.72s-.7-.18-1.04-.18h-1.25v6.89h1.25c.35,0,.7-.06,1.06-.19.36-.13.65-.37.86-.72Z"/>
        <path class="cls-1" d="M82.45,29.13c-.41-.64-.91-1.08-1.52-1.32-.61-.24-1.26-.36-1.94-.36-.62,0-1.25.16-1.89.48-.64.32-1.16.77-1.57,1.36-.34.51-.62,1.12-.83,1.86-.22.73-.32,1.58-.32,2.55s.1,1.78.3,2.5c.2.72.51,1.39.91,2.01.36.55.84.98,1.43,1.31.59.33,1.24.49,1.97.49s1.4-.18,2.03-.54c.63-.36,1.12-.78,1.46-1.26.36-.51.65-1.14.87-1.93.21-.78.32-1.64.32-2.58s-.12-1.84-.35-2.63c-.24-.79-.52-1.44-.87-1.94Z"/>
        <path class="cls-1" d="M161.59,9.38c.27-.26.4-.63.4-1.1s-.13-.83-.4-1.12c-.27-.29-.65-.44-1.14-.44h-1.44v3.04h1.44c.5,0,.88-.13,1.14-.39Z"/>
        <path class="cls-1" d="M116.68,1.03L51.35,21.91l-11.3,23.28h134.87V1.03h-58.24ZM165.22,5.44l1.69,4.23,1.69-4.23h1.38l-2.43,5.49v3.96h-1.27v-3.95l-2.44-5.51h1.38ZM157.78,5.44h2.97c.82,0,1.44.24,1.86.71.41.47.62,1.18.62,2.13,0,.59-.1,1.07-.31,1.44-.21.36-.47.64-.79.83.35.16.62.41.82.76.19.35.28.78.28,1.28v1.11c0,.3.01.54.04.72.03.18.08.34.17.48h-1.25c-.07-.12-.12-.26-.15-.43-.03-.16-.05-.36-.05-.58v-1.01c0-.68-.16-1.16-.48-1.43-.32-.27-.74-.4-1.26-.4h-1.23v3.85h-1.24V5.44ZM149.14,11.2c-.33-.22-.68-.4-1.07-.54-.32-.11-.66-.23-1.03-.35-.37-.12-.7-.3-1-.54-.21-.16-.39-.39-.55-.69-.16-.3-.25-.72-.25-1.25,0-.32.06-.65.17-.99.12-.35.31-.64.58-.9.2-.19.46-.35.77-.48.31-.14.68-.2,1.11-.2.36,0,.72.06,1.07.16.35.11.66.29.91.56.22.21.39.49.52.83.13.35.19.75.19,1.21h-1.18c0-.29-.04-.51-.1-.64-.06-.14-.14-.29-.26-.46-.11-.16-.28-.27-.5-.33-.23-.06-.46-.08-.68-.08-.17,0-.35.03-.55.09-.2.06-.36.16-.5.3-.09.1-.17.23-.23.4-.06.17-.09.35-.09.55,0,.4.14.7.42.91.28.21.55.37.83.46.32.11.66.22,1.03.35.37.13.71.29,1.04.51.3.19.55.45.75.8.21.35.31.76.31,1.22,0,.5-.07.92-.21,1.28-.13.36-.33.67-.57.93-.24.25-.54.44-.9.58-.36.14-.77.2-1.24.2-.94,0-1.66-.34-2.15-1.01-.49-.67-.73-1.4-.73-2.19h1.29c.04.6.21,1.07.51,1.41.3.34.65.51,1.05.51.26,0,.5-.02.69-.07.2-.05.37-.15.53-.31.15-.14.27-.31.36-.53.09-.22.14-.44.14-.68,0-.44-.16-.77-.49-.99ZM131.01,5.44h2.72c.6,0,1.12.1,1.56.29.44.19.81.51,1.09.94.25.37.44.85.57,1.42.13.57.19,1.26.19,2.08s-.07,1.5-.19,2.08c-.13.57-.32,1.05-.57,1.42-.28.42-.65.73-1.09.93-.44.2-.96.3-1.56.3h-2.72V5.44ZM121.22,5.44h1.27v9.45h-1.27V5.44ZM67.99,37.54c-.44,1.14-1,2.08-1.68,2.82-.68.77-1.55,1.38-2.61,1.82-1.06.45-2.17.67-3.35.67s-2.26-.2-3.27-.59c-1-.39-1.91-1.03-2.72-1.91-.73-.76-1.3-1.71-1.71-2.84-.42-1.13-.62-2.41-.62-3.83s.2-2.67.59-3.73c.39-1.06.95-2,1.65-2.81.73-.83,1.63-1.47,2.71-1.92,1.08-.45,2.2-.67,3.38-.67s2.29.22,3.35.66c1.06.44,1.93,1.04,2.61,1.81.68.74,1.24,1.68,1.68,2.82.44,1.14.66,2.42.66,3.85s-.22,2.71-.66,3.85ZM86.63,37.54c-.44,1.14-1,2.08-1.68,2.82-.68.77-1.55,1.38-2.61,1.82-1.06.45-2.17.67-3.35.67s-2.26-.2-3.27-.59c-1.01-.39-1.91-1.03-2.72-1.91-.73-.76-1.3-1.71-1.71-2.84-.42-1.13-.62-2.41-.62-3.83s.2-2.67.59-3.73c.39-1.06.94-2,1.65-2.81.73-.83,1.63-1.47,2.71-1.92,1.08-.45,2.2-.67,3.38-.67s2.29.22,3.35.66c1.06.44,1.93,1.04,2.61,1.81.68.74,1.24,1.68,1.68,2.82.44,1.14.66,2.42.66,3.85s-.22,2.71-.66,3.85ZM108.9,42.63h-3.74v-12.39h-10.63v12.39h-3.77V15h3.77v11.5h10.63v-11.5h3.74v27.62ZM118.92,34.44v7.31h-2.9v-7.29l-5.55-10.17h3.13l3.86,7.81,3.85-7.81h3.13l-5.53,10.15ZM125.16,14.9h-1.24V5.44h1.2l3.52,6.93v-6.93h1.23v9.45h-1.18l-3.52-6.94v6.94ZM139.14,35.43c0,1.19-.15,2.21-.44,3.08-.29.87-.75,1.57-1.37,2.09-.56.5-1.25.86-2.08,1.1-.83.24-1.75.36-2.75.36s-1.94-.12-2.76-.36c-.82-.24-1.52-.6-2.09-1.1-.6-.52-1.06-1.22-1.36-2.09-.3-.87-.45-1.9-.45-3.08v-11.14h2.81v11.53c0,.66.08,1.25.25,1.77.17.52.38.93.63,1.23.37.4.84.67,1.4.8.57.13,1.09.19,1.57.19s1-.07,1.51-.21c.51-.14.98-.4,1.42-.78.34-.3.58-.71.71-1.23.13-.52.2-1.11.2-1.77v-11.53h2.81v11.14ZM139.98,14.87c-.36-.13-.67-.33-.92-.6-.27-.28-.46-.66-.6-1.13-.13-.47-.2-1.03-.2-1.67v-6.03h1.23v6.24c0,.36.04.68.11.96.07.28.17.5.27.66.16.22.37.36.62.43.25.07.48.1.69.1.22,0,.44-.04.66-.11.22-.08.43-.22.62-.42.15-.16.25-.38.31-.66.06-.28.09-.6.09-.96v-6.24h1.23v6.03c0,.64-.07,1.2-.19,1.67-.13.47-.33.85-.6,1.13-.25.27-.55.47-.91.6-.36.13-.76.2-1.21.2s-.85-.07-1.21-.2ZM155.44,41.76h-2.69l-8.01-12.83v12.83h-2.81v-17.47h2.72l8.01,12.81v-12.81h2.79v17.47ZM157.2,6.72h-2.32v8.17h-1.23V6.72h-2.38v-1.28h5.93v1.28ZM172.48,41.76h-2.69v-1.84c-.43.55-1.05,1.05-1.83,1.5-.79.44-1.67.66-2.62.66-2.62,0-4.58-.84-5.91-2.51-1.32-1.67-1.99-3.84-1.99-6.51s.67-4.87,2-6.56c1.33-1.69,3.3-2.53,5.92-2.53,1.95,0,3.53.56,4.72,1.68,1.2,1.12,1.94,2.59,2.22,4.42h-3.16c-.11-.86-.49-1.65-1.13-2.38-.65-.73-1.55-1.09-2.7-1.09-1.42,0-2.57.54-3.42,1.62-.86,1.08-1.29,2.7-1.29,4.84s.43,3.73,1.3,4.8c.87,1.08,2,1.61,3.41,1.61s2.4-.48,3.12-1.44c.72-.96,1.15-1.94,1.29-2.95h-4.06v-2.55h6.83v9.23Z"/>
        <polygon class="cls-1" points="55.52 12.99 53.74 17.46 116.45 1.03 107.91 1.03 55.52 12.99"/>
        <polygon class="cls-1" points="57.03 9.86 57.85 8.22 101.58 1.03 61.27 1.03 57.03 9.86"/>
        <polygon class="cls-1" points="107.83 0 101.58 1.03 107.91 1.03 110.91 .34 107.83 0"/>
        <polygon class="cls-1" points="116.45 1.03 116.68 1.03 117.75 .68 116.45 1.03"/>
        <path class="cls-1" d="M132.24,13.62v-6.89h1.25c.35,0,.69.06,1.04.18s.63.36.85.72c.15.25.27.59.37,1.02.1.43.14.94.14,1.53s-.04,1.1-.13,1.52c-.09.42-.2.76-.35,1.01-.21.36-.5.6-.86.72-.36.13-.72.19-1.06.19h-1.25Z"/>
        <path class="cls-1" d="M159.01,6.72h1.44c.5,0,.88.15,1.14.44.27.29.4.67.4,1.12s-.13.84-.4,1.1c-.27.26-.65.39-1.14.39h-1.44v-3.04Z"/>
      </g>
    </g>
    <g>
      <path class="cls-1" d="M213.69,43.06h-5.39v-14.67h-15.09v-4.31h35.8v4.31h-15.31v14.67ZM224.3,14.36c-.17.65-.4,1.22-.69,1.7-.35.58-.86,1.16-1.53,1.75-.68.59-1.4,1.06-2.18,1.4-1.15.52-2.49.92-4.01,1.21-1.52.29-3.15.43-4.88.43s-3.36-.14-4.89-.43c-1.54-.29-2.9-.69-4.08-1.21-.78-.35-1.5-.81-2.18-1.4-.68-.59-1.19-1.17-1.53-1.75-.29-.49-.52-1.06-.69-1.7-.17-.65-.26-1.29-.26-1.92s.09-1.27.26-1.92c.17-.65.4-1.21.69-1.7.35-.58.86-1.16,1.53-1.75.67-.59,1.4-1.06,2.18-1.4,1.18-.52,2.53-.92,4.05-1.21s3.15-.43,4.87-.43,3.36.14,4.9.43c1.54.29,2.88.69,4.03,1.21.78.34,1.5.81,2.18,1.4.68.59,1.18,1.17,1.53,1.75.29.49.52,1.06.69,1.7.17.65.26,1.29.26,1.92s-.09,1.27-.26,1.92ZM207.8,8.53c-1.05.19-1.85.4-2.39.63-.46.17-.89.4-1.27.67-.39.27-.7.58-.93.93-.14.23-.26.5-.37.82-.1.32-.15.6-.15.86s.05.55.15.86c.1.32.22.59.37.82.23.35.54.66.93.93.39.27.81.5,1.27.67.54.2,1.34.4,2.39.6,1.05.2,2.11.3,3.17.3s2.16-.1,3.19-.3c1.04-.2,1.82-.4,2.37-.6.46-.17.89-.39,1.29-.67.4-.27.71-.58.91-.93.14-.23.26-.5.36-.82.1-.32.15-.6.15-.86s-.05-.55-.15-.86c-.1-.32-.22-.59-.36-.82-.2-.34-.51-.65-.91-.93-.4-.27-.83-.5-1.29-.67-.55-.23-1.34-.44-2.37-.63-1.04-.19-2.1-.28-3.19-.28s-2.12.09-3.17.28Z"/>
      <path class="cls-1" d="M234.82,9.42h22.08v3.92h-22.08v-3.92ZM248.62,14.96c.83.13,1.58.31,2.24.54.58.2,1.13.45,1.66.75.53.3,1.01.67,1.44,1.1.49.49.84,1.05,1.06,1.68.22.63.32,1.25.32,1.85s-.11,1.22-.32,1.85c-.22.63-.57,1.19-1.06,1.68-.43.43-.92.79-1.44,1.08-.53.29-1.09.55-1.66.78-.66.23-1.41.41-2.24.54-.83.13-1.63.19-2.37.19s-1.5-.06-2.35-.19c-.85-.13-1.6-.31-2.27-.54-.57-.23-1.13-.49-1.66-.78-.53-.29-1.01-.65-1.44-1.08-.46-.49-.8-1.05-1.04-1.68-.23-.63-.34-1.25-.34-1.85s.11-1.23.34-1.88c.23-.65.58-1.2,1.04-1.66.43-.43.91-.8,1.44-1.1.53-.3,1.09-.55,1.66-.75.66-.23,1.41-.41,2.27-.54.85-.13,1.63-.19,2.35-.19s1.54.07,2.37.19ZM258.24,28.44c1.47.2,2.69.45,3.67.74,1.09.32,2.05.72,2.87,1.23.82.51,1.46,1.03,1.92,1.58.46.55.8,1.12,1.01,1.72.22.6.33,1.24.33,1.9s-.11,1.26-.33,1.88c-.21.62-.55,1.2-1.01,1.74-.46.55-1.1,1.07-1.92,1.58-.82.5-1.78.91-2.87,1.23-.98.29-2.2.53-3.67.73-1.47.2-3.02.3-4.66.3s-3.19-.1-4.66-.3c-1.47-.2-2.69-.45-3.67-.73-1.09-.32-2.05-.72-2.87-1.23-.82-.51-1.46-1.03-1.92-1.58-.46-.55-.8-1.13-1.02-1.74-.21-.62-.32-1.25-.32-1.88s.11-1.29.32-1.9c.22-.6.56-1.18,1.02-1.72.46-.55,1.1-1.07,1.92-1.58.82-.5,1.77-.91,2.87-1.23.98-.29,2.21-.53,3.69-.74,1.48-.2,3.03-.3,4.63-.3s3.19.1,4.66.3ZM240,3.6h11.52v4.1h-11.52V3.6ZM245.04,18.35c-.43.06-.82.16-1.16.3-.23.09-.45.19-.65.32-.2.13-.42.31-.65.54-.17.2-.3.42-.37.65-.07.23-.11.45-.11.65s.04.42.11.65c.07.23.2.45.37.65.23.23.44.41.65.54.2.13.42.24.65.32.34.11.72.21,1.12.28.4.07.82.11,1.25.11s.85-.03,1.25-.11c.4-.07.78-.17,1.12-.28.23-.09.45-.19.67-.32.21-.13.42-.31.62-.54.17-.2.29-.42.37-.65s.11-.45.11-.65-.03-.42-.11-.65c-.07-.23-.2-.45-.37-.65-.2-.23-.41-.41-.62-.54-.22-.13-.44-.24-.67-.32-.34-.14-.72-.24-1.12-.3-.4-.06-.82-.09-1.25-.09-.37,0-.78.03-1.21.09ZM250.33,32.21c-.96.13-1.78.28-2.44.45-.43.11-.86.27-1.27.47-.42.2-.77.43-1.06.69-.26.23-.46.51-.6.82-.14.32-.22.6-.22.86s.07.55.22.88c.14.33.34.61.6.84.29.26.64.48,1.06.67.42.18.84.34,1.27.45.66.17,1.47.33,2.44.48.96.14,2.05.21,3.25.21s2.3-.07,3.28-.21c.98-.14,1.78-.3,2.42-.48.43-.12.86-.27,1.27-.45.41-.19.77-.41,1.05-.67.26-.23.46-.51.6-.84.14-.33.22-.63.22-.88s-.07-.55-.22-.86c-.14-.32-.34-.59-.6-.82-.29-.26-.64-.49-1.05-.69-.42-.2-.84-.36-1.27-.47-.63-.17-1.44-.33-2.42-.45-.98-.13-2.07-.19-3.28-.19s-2.29.06-3.25.19ZM262,2.95h5.39v25.1h-5.39v-3.54h-5.82v-3.88h5.82v-2.59h-5.82v-3.88h5.82V2.95Z"/>
      <path class="cls-1" d="M284.79,19.21c-.47.8-.99,1.58-1.53,2.33-.63.89-1.36,1.81-2.18,2.76-.82.95-1.52,1.7-2.09,2.24-.26-.32-.56-.65-.88-.99-.33-.35-.67-.68-1.02-.99-.29-.29-.67-.58-1.14-.86-.47-.29-.96-.57-1.45-.86.58-.49,1.19-1.04,1.86-1.64.66-.6,1.25-1.18,1.77-1.73.46-.49.98-1.14,1.57-1.94.59-.81,1.1-1.6,1.53-2.37.29-.52.58-1.16.89-1.92.3-.76.51-1.4.63-1.92.14-.49.27-1.06.39-1.7.11-.65.22-1.27.3-1.88.09-.55.17-1.16.24-1.83.07-.68.12-1.37.15-2.09l3.97.43c.43.06.78.13,1.06.22.27.09.41.26.41.52,0,.23-.06.47-.17.73-.12.26-.22.56-.3.91-.06.29-.13.71-.22,1.27-.08.56-.19,1.14-.3,1.75.06.29.13.6.24.95.1.35.21.68.32.99.14.37.32.81.54,1.29.22.49.41.89.58,1.21.32.55.7,1.13,1.14,1.75.44.62.88,1.17,1.32,1.66.4.46.83.9,1.29,1.32.46.42.93.83,1.42,1.23.43.35.92.71,1.49,1.1.56.39,1.07.73,1.53,1.01-.83.66-1.59,1.35-2.28,2.05-.69.7-1.29,1.42-1.81,2.13-.29-.26-.65-.58-1.08-.97-.43-.39-.81-.74-1.12-1.06-.37-.34-.73-.7-1.06-1.08-.33-.37-.67-.75-1.01-1.12-.34-.4-.72-.86-1.12-1.38-.4-.52-.76-1.01-1.08-1.47-.23-.34-.48-.73-.74-1.14-.26-.42-.52-.83-.78-1.23-.37.75-.8,1.52-1.27,2.33ZM280.54,28.83h5.39v8.84h21.35v4.31h-26.74v-13.15ZM311.59,13.95v4.53h-5.17v13.15h-5.39V2.95h5.39v11h5.17Z"/>
      <path class="cls-1" d="M317.76,10.58c.23-.89.56-1.7.99-2.42.4-.69.92-1.34,1.55-1.94.63-.6,1.4-1.14,2.28-1.6.66-.32,1.4-.57,2.23-.75.82-.19,1.66-.28,2.52-.28s1.71.09,2.54.28c.83.19,1.57.44,2.2.75.89.46,1.65.99,2.29,1.6.63.6,1.15,1.25,1.55,1.94.43.72.76,1.52.99,2.42.23.89.34,1.75.34,2.59s-.12,1.66-.34,2.57c-.23.91-.56,1.72-.99,2.44-.4.69-.92,1.34-1.55,1.94-.63.6-1.4,1.14-2.29,1.59-.63.32-1.37.57-2.2.76-.83.19-1.68.28-2.54.28s-1.7-.09-2.52-.28c-.82-.19-1.56-.44-2.23-.76-.89-.46-1.65-.99-2.28-1.59-.63-.6-1.15-1.25-1.55-1.94-.43-.72-.76-1.53-.99-2.44-.23-.91-.34-1.76-.34-2.57s.11-1.7.34-2.59ZM327.34,41.94v1.12h-5.39v-17.68h5.39v4.01h16.6v-4.23h5.39v17.9h-5.39v-1.12h-16.6ZM322.61,14.68c.13.49.29.92.5,1.29.23.37.49.72.78,1.04.29.32.62.59,1,.82.32.2.7.36,1.14.47.45.11.88.17,1.32.17s.87-.06,1.31-.17c.45-.11.83-.27,1.14-.47.37-.23.71-.5,1.01-.82.3-.32.55-.66.76-1.04.23-.37.4-.8.52-1.27s.17-.98.17-1.53c0-.43-.06-.91-.17-1.45-.12-.53-.29-.98-.52-1.36-.2-.37-.46-.73-.76-1.06-.3-.33-.64-.6-1.01-.8-.32-.2-.7-.36-1.14-.47-.44-.11-.88-.17-1.31-.17s-.87.06-1.32.17c-.45.11-.83.27-1.14.47-.37.2-.71.47-1,.8-.29.33-.55.68-.78,1.06-.2.37-.37.81-.5,1.32-.13.5-.2,1-.2,1.49,0,.52.06,1.02.2,1.51ZM343.94,33.57h-16.6v4.18h16.6v-4.18ZM343.94,2.95h5.39v20.7h-5.39v-8.54h-5.78v-4.31h5.78V2.95Z"/>
    </g>
  </g>
</svg>